<svg version="1.1" xmlns="http://www.w3.org/2000/svg" xmlns:xlink="http://www.w3.org/1999/xlink" x="0px" y="0px"
	 viewBox="0 0 36 36" style="enable-background:new 0 0 36 36;" xml:space="preserve">
<style type="text/css">
	.st0{fill:#f9d298;}
	.st1{fill:#f38e05;}
	.st2{fill:#FFFFFF;}
</style>
	<g id="logoutGroup">
		<path id="s3" class="st0" d="M20.8,18.7c0-0.4,0.3-0.8,0.8-0.8h3.1v-8c0-1-0.8-1.8-1.8-1.8H8.7c-0.4,0-0.7,0.1-1,0.3
			c0.1-0.1,0.3-0.1,0.5,0l9.8,2.4c0.7,0.2,1.3,1.1,1.3,2.1v16.4h3.7c1,0,1.8-0.8,1.8-1.8v-8h-3.1C21.1,19.4,20.8,19.1,20.8,18.7z"/>
		<path id="s2" class="st1" d="M17.9,10.7L8.1,8.4c-0.2,0-0.3,0-0.5,0C7.2,8.5,6.8,9.1,6.8,9.9v17.6c0,1,0.6,2,1.3,2.1l9.8,2.4
			c0.7,0.2,1.3-0.5,1.3-1.5v-1.2V12.9C19.1,11.9,18.6,10.9,17.9,10.7z"/>
		<path id="s1" class="st1" d="M30.6,18.1l-3.8-2.7c-0.2-0.1-0.4-0.2-0.7-0.1c-0.2,0.1-0.3,0.3-0.3,0.6v2h-1.1h-3.1
			c-0.4,0-0.8,0.3-0.8,0.8s0.3,0.8,0.8,0.8h3.1h1.1v2c0,0.2,0.1,0.5,0.3,0.6c0.1,0,0.2,0.1,0.3,0.1c0.1,0,0.3,0,0.4-0.1l3.8-2.7
			c0.2-0.1,0.3-0.3,0.3-0.5C30.8,18.5,30.7,18.3,30.6,18.1z"/>
	</g>
</svg>
