<?xml version="1.0" encoding="UTF-8"?><svg xmlns="http://www.w3.org/2000/svg" viewBox="0 0 40 40">
<defs><style>.d{fill:#fff;}.e{stroke:#f9d298;stroke-miterlimit:10;}.e,.f{fill:#f9d298;}.g{fill:#f38e05;}</style>
</defs>
<g id="a"/><g id="b"><g id="c"><g><g><path class="f" d="M20,18.18c8.1,0,14.81,5.89,16.12,13.63,2.43-3.31,3.88-7.39,3.88-11.81C40,8.95,31.05,0,20,0S0,8.95,0,20c0,4.42,1.45,8.5,3.88,11.81,1.31-7.73,8.01-13.63,16.12-13.63Z"/><path class="g" d="M20,40c6.62,0,12.48-3.23,16.12-8.19-1.31-7.73-8.01-13.63-16.12-13.63S5.19,24.08,3.88,31.81c3.64,4.96,9.49,8.19,16.12,8.19Z"/></g><g><path class="d" d="M20,22.03c-4.56,0-8.27-3.71-8.27-8.27s3.71-8.27,8.27-8.27,8.27,3.71,8.27,8.27-3.71,8.27-8.27,8.27Z"/><path class="e" d="M20,6.48c4.02,0,7.27,3.26,7.27,7.27s-3.26,7.27-7.27,7.27-7.27-3.26-7.27-7.27,3.26-7.27,7.27-7.27m0-2c-5.11,0-9.27,4.16-9.27,9.27s4.16,9.27,9.27,9.27,9.27-4.16,9.27-9.27-4.16-9.27-9.27-9.27h0Z"/></g></g></g></g></svg>